<svg xmlns="http://www.w3.org/2000/svg" width="64" height="64" viewBox="0 0 64 64">
  <defs>
    <style>
      .dark { stroke: #0f2338; fill: none; stroke-linecap: round; stroke-linejoin: round; }
      .blue { stroke: #187fd1; fill: none; stroke-linecap: round; }
      .green { stroke: #52b61f; fill: none; stroke-linecap: round; }
      .dot-blue { fill: #187fd1; }
      .dot-green { fill: #52b61f; }
      .dot-orange { fill: #f4a621; }
    </style>
  </defs>
  <path class="blue" stroke-width="2.6" d="M33 6C24 6 16 11 10 18c-2 3-3 6-4 10" />
  <path class="green" stroke-width="2.6" d="M10 41c3 6 8 11 15 14 7 3 15 2 22-1 3-1 5-3 7-4" />
  <path class="dark" stroke-width="2.6" d="M49 17c4 5 7 12 5 19-1 3-2 6-4 9" />
  <path class="dark" stroke-width="2.3" d="M16 44c3 6 8 11 14 14" />
  <path class="dark" stroke-width="2.3" d="M19 16c6-6 15-9 23-8 4 1 8 3 12 6" />
  <ellipse class="dark" stroke-width="2.6" cx="31" cy="31" rx="9" ry="19" />
  <path class="dark" stroke-width="2.3" d="M14 32c11-5 27-5 39 0" />
  <path class="dark" stroke-width="2.3" d="M26 12c-6 6-8 15-6 23 1 7 5 13 10 17" />
  <path class="dark" stroke-width="2.3" d="M36 12c6 6 9 15 8 24-1 5-3 10-6 14" />
  <circle class="dot-blue" cx="50" cy="14" r="4" />
  <circle class="dot-green" cx="12" cy="31" r="4" />
  <circle class="dot-orange" cx="50" cy="45" r="4" />
</svg>
