<svg xmlns="http://www.w3.org/2000/svg" width="256" height="256" viewBox="0 0 256 256" role="img" aria-labelledby="title desc">
  <title id="title">Icona GEO-HUB</title>
  <desc id="desc">Simbolo globo GEO-HUB</desc>
  <defs>
    <style>
      .dark { stroke: #0f2338; fill: none; stroke-linecap: round; stroke-linejoin: round; }
      .blue { stroke: #187fd1; fill: none; stroke-linecap: round; }
      .green { stroke: #52b61f; fill: none; stroke-linecap: round; }
      .dot-blue { fill: #187fd1; }
      .dot-green { fill: #52b61f; }
      .dot-orange { fill: #f4a621; }
    </style>
  </defs>

  <path class="blue" stroke-width="10" d="M132 24c-34 1-66 20-87 52-9 13-14 26-18 39" />
  <path class="green" stroke-width="10" d="M40 161c12 23 32 41 57 51 26 10 56 9 81-2 10-5 18-10 26-17" />
  <path class="dark" stroke-width="10" d="M196 69c17 20 25 48 20 74-2 11-7 22-13 32" />
  <path class="dark" stroke-width="9" d="M66 174c10 25 31 45 56 56" />
  <path class="dark" stroke-width="9" d="M77 64c24-24 60-36 93-29 16 3 30 11 42 23" />
  <ellipse class="dark" stroke-width="10" cx="126" cy="120" rx="33" ry="77" />
  <path class="dark" stroke-width="9" d="M57 125c44-19 107-19 157 0" />
  <path class="dark" stroke-width="9" d="M109 43c-22 24-31 58-24 90 5 26 18 48 37 65" />
  <path class="dark" stroke-width="9" d="M144 43c24 23 37 60 32 96-3 19-10 37-21 52" />
  <circle class="dot-blue" cx="201" cy="58" r="13" />
  <circle class="dot-green" cx="52" cy="124" r="13" />
  <circle class="dot-orange" cx="203" cy="180" r="13" />
</svg>
