<svg xmlns="http://www.w3.org/2000/svg" width="620" height="421" viewBox="0 0 620 421" role="img" aria-labelledby="title desc">
  <title id="title">Logo GEO-HUB</title>
  <desc id="desc">Marchio GEO-HUB con globo stilizzato sopra e scritta GEO-HUB sotto</desc>
  <defs>
    <style>
      .dark {
        stroke: #0f2338;
        fill: none;
        stroke-linecap: round;
        stroke-linejoin: round;
      }

      .blue {
        stroke: #187fd1;
        fill: none;
        stroke-linecap: round;
      }

      .green {
        stroke: #52b61f;
        fill: none;
        stroke-linecap: round;
      }

      .dot-blue {
        fill: #187fd1;
      }

      .dot-green {
        fill: #52b61f;
      }

      .dot-orange {
        fill: #f4a621;
      }

      .geo {
        fill: #0f2338;
      }

      .hub {
        fill: #52b61f;
      }

      text {
        font-family: Manrope, Montserrat, Arial, sans-serif;
        font-weight: 800;
        letter-spacing: 7px;
      }
    </style>
  </defs>

  <rect width="620" height="421" fill="#ffffff"/>

  <g transform="translate(176 18) scale(1.16)">
    <path class="blue" stroke-width="10" d="M54 88c11-35 38-64 74-78 33-13 72-10 103 8"/>
    <path class="green" stroke-width="10" d="M62 186c16 37 51 65 94 72 31 5 62 0 89-15"/>
    <path class="dark" stroke-width="11" d="M92 97c9-49 44-87 90-96"/>
    <path class="dark" stroke-width="11" d="M236 70c23 26 35 61 30 98-2 14-7 28-14 41"/>
    <path class="dark" stroke-width="10" d="M99 191c15 34 47 59 84 66"/>
    <path class="dark" stroke-width="10" d="M96 96c40-42 105-45 147-8"/>
    <ellipse class="dark" stroke-width="10" cx="173" cy="135" rx="42" ry="96"/>
    <path class="dark" stroke-width="10" d="M88 139c54-24 136-25 194-2"/>
    <path class="dark" stroke-width="10" d="M145 31c-34 40-45 94-31 146 9 34 30 62 60 79"/>
    <path class="dark" stroke-width="10" d="M197 31c33 33 51 80 49 128-1 27-8 53-22 76"/>
    <circle class="dot-blue" cx="244" cy="55" r="18"/>
    <circle class="dot-green" cx="83" cy="139" r="18"/>
    <circle class="dot-orange" cx="246" cy="199" r="18"/>
  </g>

  <text x="50" y="377" font-size="86" class="geo">GEO-</text>
  <text x="335" y="377" font-size="86" class="hub">HUB</text>
</svg>
